<svg xmlns="http://www.w3.org/2000/svg" width="56" height="57" fill="#fff" fill-rule="evenodd" xmlns:v="https://vecta.io/nano"><path d="M17.3 27.187c0 .576.062 1.044.17 1.386.125.343.28.716.498 1.12.078.125.11.25.11.358 0 .156-.093.312-.296.467l-.98.654c-.14.093-.28.14-.405.14-.156 0-.312-.078-.467-.218a4.82 4.82 0 0 1-.561-.732l-.483-.92c-1.215 1.433-2.74 2.15-4.58 2.15-1.308 0-2.352-.374-3.115-1.12s-1.153-1.744-1.153-3c0-1.324.467-2.4 1.417-3.208s2.212-1.215 3.816-1.215c.53 0 1.075.047 1.65.125s1.168.202 1.79.343V22.39c0-1.184-.25-2.01-.732-2.492-.498-.483-1.34-.716-2.54-.716-.545 0-1.106.062-1.682.202a12.41 12.41 0 0 0-1.682.53 4.47 4.47 0 0 1-.545.202c-.11.03-.187.047-.25.047-.218 0-.327-.156-.327-.483v-.763c0-.25.03-.436.11-.545s.218-.218.436-.327c.545-.28 1.2-.514 1.962-.7.763-.202 1.573-.296 2.43-.296 1.853 0 3.208.42 4.08 1.262.857.84 1.293 2.118 1.293 3.83v5.046h.03zm-6.323 2.367c.514 0 1.044-.093 1.604-.28s1.06-.53 1.48-.997c.25-.296.436-.623.53-.997a5.59 5.59 0 0 0 .156-1.355v-.654c-.452-.11-.935-.202-1.433-.265s-.98-.093-1.464-.093c-1.044 0-1.807.202-2.32.623s-.763 1.012-.763 1.79c0 .732.187 1.277.576 1.65.374.39.92.576 1.635.576zm12.507 1.682c-.28 0-.467-.047-.592-.156-.125-.093-.234-.312-.327-.607l-3.66-12.04c-.093-.312-.14-.514-.14-.623 0-.25.125-.39.374-.39h1.526c.296 0 .498.047.607.156.125.093.218.312.312.607l2.617 10.31 2.43-10.31c.078-.312.17-.514.296-.607s.343-.156.623-.156h1.246c.296 0 .498.047.623.156.125.093.234.312.296.607l2.46 10.435 2.694-10.435c.093-.312.202-.514.312-.607.125-.093.327-.156.607-.156h1.448c.25 0 .39.125.39.39 0 .078-.016.156-.03.25s-.047.218-.11.39l-3.754 12.04c-.093.312-.202.514-.327.607s-.327.156-.592.156h-1.34c-.296 0-.498-.047-.623-.156s-.234-.312-.296-.623L28.14 20.427l-2.4 10.03c-.078.312-.17.514-.296.623s-.343.156-.623.156h-1.34zm20.014.42c-.8 0-1.62-.093-2.4-.28s-1.386-.39-1.79-.623c-.25-.14-.42-.296-.483-.436a1.1 1.1 0 0 1-.093-.436v-.794c0-.327.125-.483.358-.483a.88.88 0 0 1 .28.047c.093.03.234.093.39.156a8.47 8.47 0 0 0 1.713.545c.623.125 1.23.187 1.853.187.98 0 1.744-.17 2.274-.514s.8-.84.8-1.48c0-.436-.14-.794-.42-1.1s-.8-.56-1.573-.8l-2.258-.7c-1.137-.358-1.978-.888-2.492-1.59-.514-.685-.78-1.448-.78-2.258 0-.654.14-1.23.42-1.73s.654-.935 1.12-1.277c.467-.358.997-.623 1.62-.8s1.277-.265 1.962-.265a7.82 7.82 0 0 1 1.044.062l1.012.17.888.25c.28.093.498.187.654.28.218.125.374.25.467.39.093.125.14.296.14.514v.732c0 .327-.125.498-.358.498-.125 0-.327-.062-.592-.187-.888-.405-1.885-.607-3-.607-.888 0-1.59.14-2.07.436s-.732.748-.732 1.386a1.47 1.47 0 0 0 .467 1.106c.312.296.888.592 1.713.857l2.212.7c1.12.358 1.93.857 2.414 1.495s.716 1.37.716 2.18c0 .67-.14 1.277-.405 1.807-.28.53-.654.997-1.137 1.37-.483.39-1.06.67-1.73.872-.7.218-1.433.327-2.227.327z" fill-rule="nonzero"/><path d="M46.442 39.226C41.318 43 33.873 45.02 27.472 45.02c-8.97 0-17.055-3.317-23.16-8.83-.483-.436-.047-1.028.53-.685 6.604 3.83 14.75 6.152 23.176 6.152 5.685 0 11.93-1.184 17.678-3.613.857-.4 1.6.56.748 1.184zm2.134-2.43c-.654-.84-4.33-.405-5.996-.202-.498.062-.576-.374-.125-.7 2.928-2.056 7.74-1.464 8.302-.78.56.7-.156 5.514-2.897 7.82-.42.358-.825.17-.64-.296.623-1.542 2-5.015 1.355-5.84z"/></svg>